<?xml version="1.0" standalone="no"?>
<!DOCTYPE svg PUBLIC "-//W3C//DTD SVG 20010904//EN"
 "http://www.w3.org/TR/2001/REC-SVG-20010904/DTD/svg10.dtd">
<svg version="1.0" xmlns="http://www.w3.org/2000/svg"
 width="512.000000pt" height="512.000000pt" viewBox="0 0 512.000000 512.000000"
 preserveAspectRatio="xMidYMid meet">
<metadata>
Created by potrace 1.14, written by Peter Selinger 2001-2017
</metadata>
<g transform="translate(0.000000,512.000000) scale(0.100000,-0.100000)"
fill="#000000" stroke="none">
<path d="M2379 5086 c-2 -2 -35 -7 -74 -10 -165 -16 -388 -63 -545 -116 -68
-23 -201 -75 -227 -89 -10 -5 -49 -23 -87 -40 -220 -99 -506 -309 -711 -523
-240 -249 -420 -535 -545 -863 -36 -95 -98 -317 -115 -410 -4 -22 -9 -49 -11
-60 -4 -25 -11 -80 -21 -165 -10 -85 -10 -416 0 -505 18 -169 63 -379 116
-543 44 -135 143 -357 202 -452 9 -14 28 -45 43 -70 42 -72 47 -79 136 -200
103 -141 346 -386 483 -489 320 -239 644 -387 1019 -467 170 -35 330 -51 518
-51 177 0 329 12 445 37 22 5 56 12 75 15 58 10 179 43 277 74 623 203 1177
684 1465 1271 88 180 173 409 194 525 3 16 7 32 9 36 6 9 44 240 53 319 9 88
9 417 -1 510 -43 398 -176 774 -394 1115 -45 69 -137 196 -180 245 -12 14 -31
36 -43 50 -79 92 -213 219 -316 301 -215 170 -395 275 -640 375 -200 81 -347
119 -659 169 -42 7 -460 16 -466 11z"/>
</g>
</svg>
